<svg version="1.0" xmlns="http://www.w3.org/2000/svg"
 width="100%" height="100%" viewBox="0 0 750.000000 750.000000"
 preserveAspectRatio="xMidYMid meet">
<g transform="translate(0.000000,750.000000) scale(0.100000,-0.100000)"
fill="#dc1717" stroke="none">
<path d="M5118 5703 c-10 -2 -18 -8 -18 -12 0 -4 -27 -27 -60 -51 -33 -24 -60
-47 -60 -52 0 -4 -5 -8 -10 -8 -6 0 -21 -10 -33 -23 -12 -13 -40 -36 -62 -53
-41 -30 -60 -45 -110 -89 -16 -14 -42 -33 -57 -43 -16 -9 -28 -20 -28 -24 0
-4 -7 -8 -15 -8 -8 0 -15 -7 -15 -15 0 -8 -7 -15 -15 -15 -8 0 -15 -4 -15 -8
0 -5 -27 -28 -60 -52 -33 -24 -60 -47 -60 -52 0 -4 -7 -8 -15 -8 -8 0 -15 -3
-15 -8 0 -4 -23 -25 -51 -47 -29 -22 -65 -52 -81 -67 -16 -16 -33 -28 -38 -28
-6 0 -10 -3 -10 -8 0 -4 -27 -27 -60 -51 -33 -24 -60 -48 -60 -52 0 -5 -7 -9
-15 -9 -8 0 -15 -3 -15 -8 0 -4 -27 -27 -60 -51 -33 -24 -60 -48 -60 -52 0 -5
-7 -9 -15 -9 -8 0 -15 -4 -15 -8 0 -5 -27 -28 -60 -52 -33 -24 -60 -47 -60
-52 0 -4 -6 -8 -14 -8 -8 0 -16 -7 -20 -15 -3 -8 -14 -15 -24 -15 -10 0 -22
-4 -28 -10 -5 -5 -30 -14 -54 -19 -59 -11 -137 -30 -178 -43 -19 -5 -57 -14
-85 -18 -29 -5 -72 -13 -97 -19 -25 -6 -65 -16 -90 -23 -25 -6 -63 -14 -85
-19 -37 -7 -59 -12 -175 -41 -44 -10 -67 -15 -180 -38 -54 -12 -116 -26 -215
-50 -27 -7 -70 -16 -95 -20 -25 -4 -64 -12 -87 -18 -24 -7 -62 -17 -85 -24
-24 -6 -65 -15 -93 -19 -65 -10 -176 -36 -210 -49 -14 -5 -43 -10 -64 -10 -20
0 -41 -4 -47 -9 -5 -6 -34 -15 -64 -20 -111 -21 -166 -33 -210 -47 -25 -8 -57
-14 -72 -14 -15 0 -39 -5 -55 -11 -15 -6 -50 -15 -78 -19 -27 -5 -70 -14 -95
-20 -92 -23 -136 -33 -180 -40 -25 -4 -58 -12 -73 -19 -16 -6 -40 -11 -53 -11
-14 0 -46 -6 -72 -14 -78 -23 -144 -38 -197 -47 -66 -10 -176 -36 -210 -49
-14 -5 -37 -10 -49 -10 -52 0 -54 -43 -11 -235 7 -33 20 -94 29 -135 8 -41 22
-107 31 -146 8 -40 15 -82 15 -95 0 -13 7 -42 15 -64 8 -22 14 -57 15 -78 0
-21 5 -47 10 -57 6 -10 14 -45 20 -77 18 -113 31 -178 42 -212 6 -19 14 -60
19 -90 11 -75 27 -155 45 -217 8 -28 14 -64 14 -80 1 -16 8 -38 18 -49 17 -21
105 -55 139 -55 11 0 28 -7 39 -15 10 -8 30 -15 42 -15 13 0 38 -6 55 -13 52
-22 133 -47 153 -47 11 0 28 -7 38 -15 11 -8 32 -15 46 -15 14 0 30 -4 35 -8
6 -5 64 -26 130 -47 66 -20 135 -43 153 -51 18 -8 41 -14 50 -14 10 0 22 -4
27 -9 6 -6 28 -14 50 -20 22 -5 56 -15 75 -22 19 -6 51 -17 70 -24 19 -7 51
-18 70 -25 19 -6 52 -15 73 -20 21 -4 44 -13 50 -19 6 -6 23 -11 37 -11 14 0
34 -6 45 -14 11 -7 34 -16 50 -18 36 -7 89 -25 128 -44 16 -8 38 -14 50 -14
12 -1 33 -7 47 -15 33 -19 75 -19 94 0 8 8 19 15 25 15 6 0 11 4 11 8 0 5 27
28 60 52 33 24 60 47 60 52 0 4 7 8 15 8 8 0 15 4 15 9 0 5 20 22 45 38 25 15
45 31 45 36 0 4 7 7 15 7 8 0 15 4 15 8 0 5 27 28 60 52 33 24 60 47 60 52 0
4 6 8 14 8 8 0 16 4 18 9 4 12 96 81 108 81 6 0 10 7 10 15 0 8 6 15 14 15 8
0 16 3 18 8 2 4 22 20 46 36 23 16 42 33 42 37 0 5 7 9 15 9 8 0 15 4 15 8 0
10 96 82 110 82 5 0 10 7 10 15 0 8 7 15 15 15 8 0 15 4 15 10 0 5 20 21 45
36 25 14 45 30 45 35 0 5 7 9 15 9 8 0 15 4 15 8 0 5 27 28 60 52 33 24 60 47
60 52 0 4 6 8 14 8 8 0 16 4 18 9 4 12 96 81 108 81 6 0 10 4 10 8 0 5 27 28
60 52 33 24 60 47 60 52 0 4 7 8 15 8 8 0 15 4 15 8 0 5 27 28 60 52 33 24 60
47 60 52 0 4 7 8 15 8 8 0 15 4 15 9 0 4 19 21 43 37 23 16 44 32 47 35 3 3
19 8 35 11 42 7 122 27 175 44 25 8 58 14 74 14 16 0 53 7 83 15 29 8 77 22
106 30 30 8 64 15 76 15 12 0 47 6 79 14 31 8 80 20 107 26 28 7 70 16 95 21
46 8 95 20 186 45 28 8 64 14 81 14 17 0 47 7 66 15 20 8 49 15 65 15 16 0 46
7 65 15 20 8 53 15 74 15 21 1 49 7 63 15 14 8 39 14 57 15 17 0 44 5 60 11
15 6 51 15 78 19 64 11 136 27 201 46 28 8 65 14 82 14 17 0 33 4 37 9 3 5 31
13 63 17 31 4 74 13 96 20 21 8 53 14 72 14 18 0 35 4 39 9 3 5 31 13 63 17
31 4 68 11 82 16 14 5 45 14 70 19 25 5 77 15 115 22 39 8 89 20 111 27 l42
12 5 67 c22 243 45 572 57 816 5 93 13 208 19 255 6 47 15 168 22 270 6 102
13 188 16 192 2 5 0 16 -5 25 -10 17 -62 31 -182 52 -30 6 -82 15 -115 21 -33
7 -91 18 -130 25 -38 7 -97 19 -130 25 -33 7 -82 16 -110 20 -68 9 -166 28
-245 46 -36 8 -76 14 -89 14 -14 0 -50 6 -80 14 -66 17 -164 35 -241 46 -30 4
-75 12 -100 18 -64 15 -156 33 -220 42 -30 4 -73 12 -95 18 -51 13 -135 21
-157 15z m287 -980 c-20 -108 -81 -214 -155 -268 -80 -58 -88 -45 -40 67 22
51 30 86 30 128 0 38 5 62 15 70 19 16 93 38 129 39 27 1 28 0 21 -36z m60
-11 c8 -28 -37 -152 -80 -217 -38 -57 -118 -120 -138 -108 -5 3 15 29 46 59
67 65 98 117 127 212 22 73 34 87 45 54z m-1248 -195 c-3 -18 -25 -84 -50
-147 -78 -198 -196 -616 -219 -773 -10 -76 -10 -90 2 -97 8 -6 20 -10 25 -10
6 0 4 4 -3 9 -14 8 -13 13 17 161 37 175 126 476 208 700 25 69 47 131 49 138
4 13 44 17 44 4 0 -4 -18 -54 -41 -112 -59 -150 -85 -225 -107 -305 -11 -38
-34 -117 -51 -175 -17 -58 -31 -109 -31 -113 0 -5 15 11 33 34 43 57 138 119
225 148 39 12 73 29 76 37 8 22 -19 17 -84 -16 -68 -34 -80 -36 -80 -15 0 15
110 75 138 75 7 0 10 4 7 10 -9 14 -63 1 -129 -32 -71 -35 -89 -32 -76 14 22
78 148 148 266 148 62 0 68 -2 101 -35 l36 -36 -6 -72 c-4 -40 -20 -115 -37
-167 -41 -127 -60 -212 -60 -266 0 -71 24 -50 31 27 4 35 24 120 45 189 41
135 56 259 33 286 -20 24 -4 26 18 1 44 -47 44 -130 -2 -257 -22 -62 -65 -242
-65 -273 0 -36 10 -57 26 -57 8 0 14 -9 14 -20 0 -32 -68 -70 -136 -77 -68 -6
-64 7 7 26 58 16 110 56 90 70 -9 6 -27 -1 -58 -23 -37 -26 -55 -31 -106 -33
-34 -1 -82 -9 -106 -17 -49 -18 -121 -21 -121 -6 0 6 14 10 32 10 40 0 115 36
129 62 17 31 4 32 -38 4 -21 -15 -61 -34 -90 -42 -48 -14 -55 -14 -87 1 -32
16 -57 52 -69 100 -3 11 -5 -15 -6 -57 -1 -68 2 -79 19 -90 43 -27 9 -66 -83
-98 -108 -36 -139 -20 -34 18 73 27 115 58 100 73 -8 8 -24 3 -53 -16 -67 -42
-119 -58 -151 -45 -22 10 -32 8 -63 -14 -46 -31 -98 -49 -128 -44 -18 3 -11
10 37 32 33 15 70 36 82 47 22 22 49 76 41 84 -2 3 -26 -16 -53 -41 -26 -25
-70 -57 -98 -70 -50 -22 -52 -23 -81 -6 -36 21 -66 76 -66 122 -1 50 -15 20
-30 -60 -15 -85 -27 -102 -101 -139 -80 -40 -134 -42 -151 -6 -15 34 2 124 48
258 19 56 33 105 31 111 -4 13 -90 -125 -125 -204 -17 -36 -39 -97 -51 -135
-11 -39 -30 -81 -41 -93 -32 -34 -98 -64 -133 -60 -31 3 -29 4 34 35 72 35 79
45 110 148 37 123 132 298 193 354 23 22 35 51 21 51 -17 0 -70 -51 -103 -99
-57 -80 -96 -163 -132 -277 -36 -114 -53 -133 -141 -165 -46 -17 -57 -24 -45
-31 9 -5 16 -13 16 -18 0 -28 -173 -101 -192 -82 -4 4 15 17 43 27 61 24 115
67 105 83 -5 8 -23 1 -57 -23 -54 -37 -104 -51 -145 -41 -19 5 -38 -1 -73 -23
-65 -42 -119 -63 -142 -56 -16 6 -9 12 39 35 82 39 142 94 142 131 0 28 0 28
-46 -21 -85 -91 -178 -127 -223 -86 -44 40 -39 116 24 336 20 69 39 159 42
201 5 70 8 77 37 97 34 23 128 47 151 38 22 -8 6 -88 -61 -324 -33 -113 -37
-152 -17 -152 8 0 57 170 94 325 28 118 27 115 38 115 29 0 16 -88 -41 -280
-17 -58 -33 -116 -36 -130 -5 -23 -4 -24 12 -11 30 25 62 101 95 223 37 141
68 226 90 252 34 40 151 81 165 58 3 -5 -18 -78 -45 -163 -88 -272 -126 -470
-86 -456 6 2 11 12 9 21 -8 46 105 462 150 549 11 22 43 23 34 1 -3 -9 -9 -28
-13 -42 -3 -15 -21 -74 -40 -132 -59 -180 -112 -409 -90 -390 3 3 43 134 88
290 44 157 87 296 94 310 24 46 143 98 159 71 4 -5 -8 -46 -24 -92 -17 -45
-28 -84 -26 -87 8 -7 67 90 73 121 4 21 11 27 31 27 14 0 48 17 76 39 66 50
88 61 124 61 74 0 75 -85 3 -320 -28 -90 -53 -192 -56 -225 l-6 -60 20 40 c11
22 20 49 21 60 0 12 18 75 40 140 54 160 74 245 61 258 -14 14 -14 67 -1 67 6
0 20 -16 32 -37 14 -23 24 -31 26 -22 29 91 206 197 284 170 17 -6 33 -9 35
-7 3 3 25 78 50 168 51 188 62 214 106 256 40 38 114 80 146 81 21 1 23 -2 18
-32z m1544 -16 c13 -10 34 -21 46 -25 23 -7 40 -46 29 -64 -3 -5 -32 -19 -65
-31 -66 -24 -116 -61 -126 -92 -5 -15 5 -32 38 -68 61 -65 78 -138 52 -220
-39 -124 -210 -231 -372 -231 -73 0 -103 15 -103 54 0 71 62 230 102 264 32
26 58 -27 65 -129 6 -75 16 -98 30 -63 3 9 0 47 -7 86 -6 38 -10 72 -7 75 10
9 39 -70 44 -119 5 -43 7 -46 24 -37 11 5 31 33 45 61 36 71 25 104 -62 189
-101 99 -114 138 -69 214 63 109 266 191 336 136z m-581 -158 c30 -39 22 -101
-41 -305 -49 -159 -71 -278 -52 -278 5 0 17 35 26 78 10 42 36 133 58 202 28
85 43 150 46 203 6 82 21 99 35 36 11 -49 1 -108 -42 -244 -37 -115 -61 -200
-74 -257 -4 -19 0 -34 19 -56 l24 -29 -27 -25 c-36 -33 -110 -60 -153 -56
l-34 4 30 8 c60 18 134 58 141 78 9 31 -3 33 -35 5 -32 -26 -128 -67 -160 -67
-10 0 -26 9 -36 20 -26 29 -14 106 40 265 l44 130 -34 -40 c-44 -51 -116 -197
-151 -303 -33 -103 -51 -126 -121 -152 -88 -33 -112 -21 -32 17 36 18 71 38
78 46 6 8 27 59 45 113 18 55 40 113 47 129 26 57 92 160 136 213 37 43 41 52
25 52 -30 0 -111 -96 -159 -186 -23 -43 -56 -124 -73 -179 -18 -55 -40 -109
-49 -119 -20 -24 -109 -66 -138 -66 -28 0 -28 10 -3 92 11 36 51 174 89 307
40 141 76 250 87 262 21 24 106 69 128 69 28 0 27 -20 -3 -100 -34 -88 -35
-90 -22 -90 5 0 26 34 48 75 24 48 43 74 53 73 8 -1 48 21 89 50 86 60 119 66
151 25z m599 -210 c111 -167 -98 -406 -354 -402 -70 1 -107 17 -41 18 100 2
230 50 300 112 19 17 47 55 62 85 24 49 26 62 21 121 -4 36 -13 76 -22 89 -8
13 -11 24 -6 24 5 0 23 -21 40 -47z m-3259 -38 c0 -9 -59 -75 -130 -148 -72
-73 -154 -166 -183 -207 l-52 -75 3 -126 c4 -194 31 -355 80 -477 23 -56 42
-114 42 -127 0 -23 -3 -25 -53 -25 -78 0 -152 46 -192 120 -28 53 -29 61 -33
213 -3 107 -8 157 -15 154 -30 -10 -80 -146 -122 -332 -17 -75 -35 -128 -47
-141 -25 -28 -186 -80 -201 -65 -12 12 -13 11 80 40 98 31 99 32 118 118 57
254 78 316 136 398 48 69 50 100 2 58 -52 -47 -93 -144 -139 -333 -30 -120
-49 -179 -61 -188 -24 -17 -181 -65 -192 -58 -5 3 8 59 29 123 66 203 206 731
225 852 10 59 38 85 120 110 79 25 94 26 101 7 3 -8 -18 -96 -46 -195 -28
-100 -50 -186 -48 -192 8 -25 36 43 81 195 26 88 50 162 52 165 3 2 10 0 16
-6 13 -13 0 -76 -33 -172 -33 -97 -21 -100 41 -8 33 48 81 121 106 162 67 107
97 129 210 160 69 19 105 19 105 0z m41 -67 c-11 -18 -66 -78 -122 -133 -106
-105 -215 -240 -225 -281 -7 -27 10 -239 31 -384 9 -65 28 -132 60 -213 55
-140 53 -148 -34 -146 -49 1 -52 2 -21 8 54 11 62 19 55 54 -7 34 -50 150 -65
179 -21 38 -60 336 -60 455 0 52 5 76 21 103 44 73 127 169 248 289 118 117
158 142 112 69z m898 -744 c-34 -36 -179 -90 -179 -67 0 5 32 24 71 43 39 18
78 44 87 57 15 24 16 24 29 7 11 -15 10 -21 -8 -40z"/>
<path d="M3803 3931 c-22 -16 -49 -44 -61 -63 -29 -46 -70 -174 -78 -240 -6
-51 -4 -57 15 -67 20 -11 21 -10 15 13 -9 38 24 173 59 240 17 32 50 74 74 94
23 19 40 39 37 44 -8 13 -19 10 -61 -21z"/>
<path d="M4303 3871 c-70 -51 -122 -196 -84 -234 8 -8 11 -1 11 29 0 53 41
134 91 178 63 58 50 76 -18 27z"/>
<path d="M3805 3831 c-33 -53 -66 -154 -72 -221 l-5 -55 21 25 c11 14 29 54
40 90 46 151 58 200 50 200 -5 0 -20 -18 -34 -39z"/>
<path d="M4301 3758 c-19 -32 -31 -67 -30 -88 l0 -35 20 39 c22 42 51 128 44
134 -2 2 -17 -20 -34 -50z"/>
<path d="M5780 4455 c-6 -7 -33 -21 -60 -30 -60 -20 -126 -67 -135 -95 -5 -15
-1 -28 14 -41 21 -20 21 -20 21 9 0 38 39 76 98 97 83 30 92 34 92 49 0 22
-16 28 -30 11z"/>
<path d="M6837 3413 c-12 -11 -8 -21 13 -26 17 -4 20 -14 20 -60 0 -36 5 -59
15 -67 13 -11 15 -4 15 54 0 53 -4 70 -20 86 -21 21 -32 24 -43 13z"/>
<path d="M6750 3361 c0 -44 22 -131 32 -125 4 3 8 29 8 59 0 30 5 57 10 60 22
14 10 35 -20 35 -26 0 -30 -3 -30 -29z"/>
<path d="M6270 3343 c0 -11 -7 -28 -15 -39 -8 -10 -15 -27 -15 -36 -1 -46 -60
-118 -60 -73 0 8 -5 15 -11 15 -5 0 -15 14 -20 30 -6 17 -15 30 -20 30 -5 0
-9 6 -9 14 0 18 -38 32 -51 19 -8 -8 -2 -83 17 -211 10 -65 23 -20 17 58 -7
94 2 101 47 38 51 -74 50 -73 71 -31 10 20 19 42 19 48 0 20 25 65 36 65 16 0
24 -34 24 -97 0 -43 3 -53 16 -53 15 0 16 9 10 68 -15 142 -20 167 -38 170
-12 2 -18 -3 -18 -15z"/>
<path d="M6652 3343 c22 -14 28 -26 33 -75 4 -32 11 -58 16 -58 15 0 14 65 -2
118 -9 27 -15 32 -42 32 l-32 -1 27 -16z"/>
<path d="M6570 3260 c0 -64 3 -80 15 -80 12 0 15 16 15 80 0 64 -3 80 -15 80
-12 0 -15 -16 -15 -80z"/>
<path d="M6440 3322 c0 -5 -11 -14 -24 -20 -29 -13 -42 -62 -32 -117 6 -31 10
-35 39 -35 l32 1 -27 17 c-16 9 -29 23 -29 32 -4 51 14 96 41 103 33 8 42 -8
39 -67 -4 -51 2 -66 27 -66 2 0 4 36 4 80 l0 80 -35 0 c-19 0 -35 -4 -35 -8z"/>
<path d="M5640 3159 c0 -73 18 -189 30 -189 10 0 17 99 8 108 -4 4 -8 36 -10
71 -2 40 -8 66 -15 69 -10 3 -13 -13 -13 -59z"/>
<path d="M5880 3189 c-39 -15 -62 -54 -62 -107 0 -49 20 -76 49 -65 14 5 14 8
1 17 -8 6 -20 21 -27 34 -24 45 43 141 71 101 5 -8 7 -36 4 -63 -5 -48 5 -76
27 -76 14 0 -1 152 -16 162 -14 9 -15 9 -47 -3z"/>
<path d="M5455 3115 c3 -38 5 -94 5 -122 l0 -53 43 0 c50 0 68 15 86 72 18 54
-2 108 -39 108 l-25 -1 21 -17 c12 -10 24 -28 28 -39 9 -28 -18 -93 -38 -93
-9 0 -16 -5 -16 -11 0 -8 -5 -8 -15 1 -10 8 -15 31 -15 64 0 28 -10 76 -20
106 l-20 55 5 -70z"/>
<path d="M5745 3152 c-6 -4 -18 -23 -29 -44 l-18 -36 33 -36 c46 -51 69 -47
28 5 l-32 41 17 35 c17 37 18 47 1 35z"/>
<path d="M5106 3084 c-36 -36 -35 -75 3 -97 16 -9 38 -17 50 -17 25 0 40 -27
32 -60 -6 -22 -13 -25 -53 -28 -36 -2 -46 -6 -41 -18 8 -22 66 -17 96 9 21 17
27 32 27 61 0 44 -20 65 -61 66 -25 0 -59 27 -59 47 0 18 36 43 63 43 15 0 27
5 27 10 0 21 -58 10 -84 -16z"/>
<path d="M5343 3068 c-40 -10 -43 -17 -5 -15 25 2 27 -1 30 -42 2 -25 1 -55
-2 -67 -8 -31 -42 -40 -68 -18 -16 16 -19 26 -13 64 6 42 5 44 -9 25 -18 -24
-20 -53 -5 -92 15 -39 25 -43 67 -21 20 10 42 16 49 13 17 -6 17 112 0 141
-10 18 -17 19 -44 12z"/>
<path d="M4732 2957 c-9 -25 -10 -42 -2 -61 5 -15 10 -44 10 -65 0 -43 26 -76
50 -61 12 7 12 12 -3 28 -9 10 -17 32 -17 48 0 16 -4 35 -9 43 -7 10 -4 20 10
32 17 14 17 18 4 23 -9 3 -19 15 -23 26 -7 19 -9 17 -20 -13z"/>
<path d="M4874 2957 c-18 -21 -36 -85 -29 -107 8 -25 62 -64 78 -56 7 4 23 13
37 21 24 14 23 15 -21 9 -40 -6 -49 -4 -58 14 -12 22 -8 27 43 52 29 15 47 46
39 68 -7 16 -75 15 -89 -1z m70 -6 c10 -16 -5 -39 -28 -43 -43 -8 -58 9 -33
37 14 16 53 20 61 6z"/>
<path d="M4290 2813 c0 -104 -2 -113 -22 -127 -12 -9 -19 -19 -15 -23 4 -3 20
3 35 14 26 19 27 25 30 114 2 72 -1 99 -12 114 -14 18 -15 10 -16 -92z"/>
<path d="M4575 2887 c-28 -31 -28 -120 1 -142 26 -20 60 -19 83 4 18 18 17 18
-24 13 -37 -4 -44 -1 -50 17 -9 29 1 41 36 41 18 0 29 5 29 14 0 8 5 16 12 18
7 3 9 14 4 31 -5 23 -12 27 -39 26 -19 0 -40 -9 -52 -22z m63 -6 c11 -7 9 -13
-9 -30 -35 -32 -67 -11 -34 23 19 18 25 19 43 7z"/>
<path d="M4420 2862 c-36 -24 -40 -32 -40 -83 0 -59 22 -82 76 -77 20 2 39 9
42 16 3 10 -4 12 -29 7 -19 -3 -40 -1 -47 3 -22 15 -10 45 21 53 16 4 35 13
43 20 20 17 17 56 -5 69 -25 13 -31 12 -61 -8z m50 -26 c0 -14 -36 -46 -52
-46 -12 0 -9 35 4 48 17 17 48 15 48 -2z"/>
</g>
</svg>